<svg xmlns="http://www.w3.org/2000/svg" width="39.054" height="43.395" viewBox="0 0 39.054 43.395"><path d="M7.339,45.394H37.715a4.339,4.339,0,0,0,4.339-4.339V21.528a2.17,2.17,0,0,0-.629-1.54L24.067,2.63a2.17,2.17,0,0,0-3.059,0L3.651,19.987A2.17,2.17,0,0,0,3,21.528V41.055A4.339,4.339,0,0,0,7.339,45.394Zm10.848-4.339V30.207h8.679V41.055ZM7.339,22.417,22.527,7.23,37.715,22.417V41.055H31.206V30.207a4.339,4.339,0,0,0-4.339-4.339H18.188a4.339,4.339,0,0,0-4.339,4.339V41.055H7.339Z" transform="translate(-3 -1.999)"/></svg>