<svg xmlns="http://www.w3.org/2000/svg" width="41.837" height="41.837" viewBox="0 0 41.837 41.837"><path d="M80.006,88.349h0c-2.146,0-4.83-.919-8.2-2.808a53.475,53.475,0,0,1-12.9-9.654,48.9,48.9,0,0,1-9.7-12.894,21.416,21.416,0,0,1-2.586-6.864A7.031,7.031,0,0,1,47,52.052a8.733,8.733,0,0,1,3.431-3.669l.006,0a16.5,16.5,0,0,1,2.653-1.414l.006,0c.093-.039.18-.078.265-.116a2.947,2.947,0,0,1,1.263-.334c1,0,1.735.65,2.739,1.643a32.229,32.229,0,0,1,4.871,7.23,7.233,7.233,0,0,1,.956,2.966A4.663,4.663,0,0,1,62,61.135c-.124.169-.244.326-.359.477-.711.934-.867,1.2-.764,1.681a17.692,17.692,0,0,0,4.31,6.392,16.817,16.817,0,0,0,6.32,4.206,1.275,1.275,0,0,0,.263.031c.383,0,.768-.281,1.474-.82.136-.1.277-.212.428-.324a4.716,4.716,0,0,1,2.83-1.266,6.768,6.768,0,0,1,2.978,1.041,35.714,35.714,0,0,1,7.205,4.835,6.029,6.029,0,0,1,1.5,1.948A2.507,2.507,0,0,1,88,81.392c-.038.084-.077.171-.116.263a16.409,16.409,0,0,1-1.42,2.656l0,.005a8.708,8.708,0,0,1-3.68,3.423A6.321,6.321,0,0,1,80.006,88.349ZM52.089,50.884a5.8,5.8,0,0,0-2.37,2.44c-.185.4-.955,2.655,2.109,8.223a45.785,45.785,0,0,0,9.188,12.216,50.145,50.145,0,0,0,12.253,9.161c2.873,1.609,5.14,2.425,6.737,2.425h0a3.3,3.3,0,0,0,1.5-.329,5.779,5.779,0,0,0,2.448-2.363,13.389,13.389,0,0,0,1.157-2.163c.042-.1.082-.19.118-.272-.123-.144-.33-.37-.679-.722a32.835,32.835,0,0,0-6.425-4.268,8.723,8.723,0,0,0-1.624-.72,4.863,4.863,0,0,0-1.045.674c-.134.1-.267.2-.4.3a5.257,5.257,0,0,1-3.3,1.437,4.273,4.273,0,0,1-.889-.1c-1.758-.375-5.005-2.218-7.812-5.015-2.836-2.827-4.757-6.173-5.125-7.887-.4-1.877.507-3.073,1.31-4.128.108-.141.219-.288.328-.436a3.354,3.354,0,0,0,.61-1,7.886,7.886,0,0,0-.676-1.7,30.017,30.017,0,0,0-4.257-6.359c-.356-.351-.583-.559-.727-.681-.083.037-.174.077-.279.121A13.49,13.49,0,0,0,52.089,50.884Z" transform="translate(-46.495 -46.512)"/></svg>