<svg xmlns="http://www.w3.org/2000/svg" width="42.002" height="53.702" viewBox="0 0 42.002 53.702"><g transform="translate(1.5 1.5)"><path d="M135,69.116V92.852a5.85,5.85,0,0,1-5.85,5.85h-27.3A5.85,5.85,0,0,1,96,92.852v-39A5.85,5.85,0,0,1,101.85,48h12.036a3.9,3.9,0,0,1,2.757,1.142L133.86,66.359A3.9,3.9,0,0,1,135,69.116Z" transform="translate(-96 -48)" fill="none" stroke="#000" stroke-linejoin="round" stroke-width="3"/><path d="M185.75,56V70.626a3.9,3.9,0,0,0,3.9,3.9h14.626M176,84.276h19.5M176,94.027h19.5" transform="translate(-166.25 -55.025)" fill="none" stroke="#000" stroke-linecap="round" stroke-linejoin="round" stroke-width="3"/></g></svg>